<mxfile host="65bd71144e">
    <diagram id="NKykkUb-layjVjnjnBaG" name="Page-1">
        <mxGraphModel dx="1780" dy="1085" grid="1" gridSize="10" guides="1" tooltips="1" connect="1" arrows="1" fold="1" page="1" pageScale="1" pageWidth="827" pageHeight="1169" math="0" shadow="0">
            <root>
                <mxCell id="0"/>
                <mxCell id="1" parent="0"/>
                <mxCell id="32" value="" style="rounded=0;whiteSpace=wrap;html=1;" vertex="1" parent="1">
                    <mxGeometry width="1290" height="1160" as="geometry"/>
                </mxCell>
                <mxCell id="33" value="" style="edgeStyle=none;html=1;" edge="1" parent="1" source="2" target="8">
                    <mxGeometry relative="1" as="geometry"/>
                </mxCell>
                <mxCell id="2" value="Initialize" style="rounded=1;whiteSpace=wrap;html=1;shadow=1;" vertex="1" parent="1">
                    <mxGeometry x="121" y="210" width="120" height="60" as="geometry"/>
                </mxCell>
                <mxCell id="35" value="" style="edgeStyle=none;html=1;" edge="1" parent="1" source="3" target="9">
                    <mxGeometry relative="1" as="geometry"/>
                </mxCell>
                <mxCell id="3" value="EnvCameraReady" style="rounded=1;whiteSpace=wrap;html=1;" vertex="1" parent="1">
                    <mxGeometry x="321" y="210" width="120" height="60" as="geometry"/>
                </mxCell>
                <mxCell id="37" value="" style="edgeStyle=none;html=1;" edge="1" parent="1" source="4" target="10">
                    <mxGeometry relative="1" as="geometry"/>
                </mxCell>
                <mxCell id="4" value="UserCameraReady" style="rounded=1;whiteSpace=wrap;html=1;" vertex="1" parent="1">
                    <mxGeometry x="521" y="210" width="120" height="60" as="geometry"/>
                </mxCell>
                <mxCell id="39" value="" style="edgeStyle=none;html=1;" edge="1" parent="1" source="5" target="11">
                    <mxGeometry relative="1" as="geometry"/>
                </mxCell>
                <mxCell id="5" value="Review" style="rounded=1;whiteSpace=wrap;html=1;" vertex="1" parent="1">
                    <mxGeometry x="721" y="210" width="120" height="60" as="geometry"/>
                </mxCell>
                <mxCell id="43" value="" style="edgeStyle=none;html=1;" edge="1" parent="1" source="6" target="12">
                    <mxGeometry relative="1" as="geometry"/>
                </mxCell>
                <mxCell id="6" value="Uploading" style="rounded=1;whiteSpace=wrap;html=1;" vertex="1" parent="1">
                    <mxGeometry x="921" y="210" width="120" height="60" as="geometry"/>
                </mxCell>
                <mxCell id="7" value="Success" style="rounded=1;whiteSpace=wrap;html=1;" vertex="1" parent="1">
                    <mxGeometry x="1121" y="210" width="120" height="60" as="geometry"/>
                </mxCell>
                <mxCell id="34" value="" style="edgeStyle=none;html=1;" edge="1" parent="1" source="8" target="14">
                    <mxGeometry relative="1" as="geometry"/>
                </mxCell>
                <mxCell id="8" value="load camera" style="shape=hexagon;perimeter=hexagonPerimeter2;whiteSpace=wrap;html=1;fixedSize=1;" vertex="1" parent="1">
                    <mxGeometry x="121" y="330" width="120" height="80" as="geometry"/>
                </mxCell>
                <mxCell id="36" value="" style="edgeStyle=none;html=1;" edge="1" parent="1" source="9" target="15">
                    <mxGeometry relative="1" as="geometry"/>
                </mxCell>
                <mxCell id="9" value="&lt;p&gt;user captures&amp;nbsp;&lt;span&gt;moment&lt;/span&gt;&lt;/p&gt;" style="shape=hexagon;perimeter=hexagonPerimeter2;whiteSpace=wrap;html=1;fixedSize=1;strokeColor=#FF33FF;" vertex="1" parent="1">
                    <mxGeometry x="321" y="330" width="120" height="80" as="geometry"/>
                </mxCell>
                <mxCell id="38" value="" style="edgeStyle=none;html=1;" edge="1" parent="1" source="10" target="16">
                    <mxGeometry relative="1" as="geometry"/>
                </mxCell>
                <mxCell id="10" value="shoot user image" style="shape=hexagon;perimeter=hexagonPerimeter2;whiteSpace=wrap;html=1;fixedSize=1;" vertex="1" parent="1">
                    <mxGeometry x="521" y="330" width="120" height="80" as="geometry"/>
                </mxCell>
                <mxCell id="11" value="user can retake or post" style="shape=hexagon;perimeter=hexagonPerimeter2;whiteSpace=wrap;html=1;fixedSize=1;strokeColor=#FF33FF;" vertex="1" parent="1">
                    <mxGeometry x="721" y="330" width="120" height="80" as="geometry"/>
                </mxCell>
                <mxCell id="44" value="" style="edgeStyle=none;html=1;" edge="1" parent="1" source="12" target="18">
                    <mxGeometry relative="1" as="geometry"/>
                </mxCell>
                <mxCell id="12" value="uploads image to S3" style="shape=hexagon;perimeter=hexagonPerimeter2;whiteSpace=wrap;html=1;fixedSize=1;" vertex="1" parent="1">
                    <mxGeometry x="921" y="330" width="120" height="80" as="geometry"/>
                </mxCell>
                <mxCell id="14" value="INITIALIZED" style="shape=step;perimeter=stepPerimeter;whiteSpace=wrap;html=1;fixedSize=1;" vertex="1" parent="1">
                    <mxGeometry x="121" y="490" width="120" height="80" as="geometry"/>
                </mxCell>
                <mxCell id="15" value="RECORD_MOMENT_ENV" style="shape=step;perimeter=stepPerimeter;whiteSpace=wrap;html=1;fixedSize=1;" vertex="1" parent="1">
                    <mxGeometry x="321" y="490" width="120" height="80" as="geometry"/>
                </mxCell>
                <mxCell id="16" value="RECORD_MOMENT_USER" style="shape=step;perimeter=stepPerimeter;whiteSpace=wrap;html=1;fixedSize=1;fontStyle=1" vertex="1" parent="1">
                    <mxGeometry x="521" y="490" width="120" height="80" as="geometry"/>
                </mxCell>
                <mxCell id="17" value="POST_MOMENT" style="shape=step;perimeter=stepPerimeter;whiteSpace=wrap;html=1;fixedSize=1;" vertex="1" parent="1">
                    <mxGeometry x="721" y="490" width="120" height="80" as="geometry"/>
                </mxCell>
                <mxCell id="18" value="UPLOAD_SUCCESS" style="shape=step;perimeter=stepPerimeter;whiteSpace=wrap;html=1;fixedSize=1;" vertex="1" parent="1">
                    <mxGeometry x="921" y="490" width="120" height="80" as="geometry"/>
                </mxCell>
                <mxCell id="21" value="RETAKE_MOMENT" style="shape=step;perimeter=stepPerimeter;whiteSpace=wrap;html=1;fixedSize=1;" vertex="1" parent="1">
                    <mxGeometry x="721" y="580" width="120" height="80" as="geometry"/>
                </mxCell>
                <mxCell id="23" value="" style="curved=1;endArrow=classic;html=1;" edge="1" parent="1" source="14" target="3">
                    <mxGeometry width="50" height="50" relative="1" as="geometry">
                        <mxPoint x="241" y="530" as="sourcePoint"/>
                        <mxPoint x="291" y="480" as="targetPoint"/>
                        <Array as="points">
                            <mxPoint x="281" y="530"/>
                            <mxPoint x="281" y="240"/>
                        </Array>
                    </mxGeometry>
                </mxCell>
                <mxCell id="24" value="" style="curved=1;endArrow=classic;html=1;" edge="1" parent="1" source="15" target="4">
                    <mxGeometry width="50" height="50" relative="1" as="geometry">
                        <mxPoint x="441" y="530" as="sourcePoint"/>
                        <mxPoint x="521" y="240" as="targetPoint"/>
                        <Array as="points">
                            <mxPoint x="481" y="530"/>
                            <mxPoint x="481" y="240"/>
                        </Array>
                    </mxGeometry>
                </mxCell>
                <mxCell id="25" value="" style="curved=1;endArrow=classic;html=1;" edge="1" parent="1" source="16" target="5">
                    <mxGeometry width="50" height="50" relative="1" as="geometry">
                        <mxPoint x="651" y="530" as="sourcePoint"/>
                        <mxPoint x="731" y="240" as="targetPoint"/>
                        <Array as="points">
                            <mxPoint x="691" y="530"/>
                            <mxPoint x="691" y="240"/>
                        </Array>
                    </mxGeometry>
                </mxCell>
                <mxCell id="27" value="" style="curved=1;endArrow=classic;html=1;" edge="1" parent="1" source="17" target="6">
                    <mxGeometry width="50" height="50" relative="1" as="geometry">
                        <mxPoint x="841" y="530" as="sourcePoint"/>
                        <mxPoint x="921" y="240" as="targetPoint"/>
                        <Array as="points">
                            <mxPoint x="891" y="530"/>
                            <mxPoint x="891" y="240"/>
                        </Array>
                    </mxGeometry>
                </mxCell>
                <mxCell id="28" value="" style="curved=1;endArrow=classic;html=1;" edge="1" parent="1" source="18" target="7">
                    <mxGeometry width="50" height="50" relative="1" as="geometry">
                        <mxPoint x="1041" y="530" as="sourcePoint"/>
                        <mxPoint x="1121" y="240" as="targetPoint"/>
                        <Array as="points">
                            <mxPoint x="1091" y="530"/>
                            <mxPoint x="1091" y="240"/>
                        </Array>
                    </mxGeometry>
                </mxCell>
                <mxCell id="29" value="" style="curved=1;endArrow=classic;html=1;entryX=0;entryY=0.5;entryDx=0;entryDy=0;exitX=1;exitY=0.5;exitDx=0;exitDy=0;" edge="1" parent="1" source="21" target="2">
                    <mxGeometry width="50" height="50" relative="1" as="geometry">
                        <mxPoint x="830" y="740" as="sourcePoint"/>
                        <mxPoint x="770" y="640" as="targetPoint"/>
                        <Array as="points">
                            <mxPoint x="900" y="650"/>
                            <mxPoint x="800" y="750"/>
                            <mxPoint x="50" y="690"/>
                            <mxPoint x="30" y="240"/>
                        </Array>
                    </mxGeometry>
                </mxCell>
                <mxCell id="41" value="" style="curved=1;endArrow=classic;html=1;entryX=0;entryY=0.5;entryDx=0;entryDy=0;" edge="1" parent="1" source="11" target="17">
                    <mxGeometry width="50" height="50" relative="1" as="geometry">
                        <mxPoint x="760" y="540" as="sourcePoint"/>
                        <mxPoint x="810" y="490" as="targetPoint"/>
                        <Array as="points">
                            <mxPoint x="700" y="430"/>
                            <mxPoint x="720" y="530"/>
                        </Array>
                    </mxGeometry>
                </mxCell>
                <mxCell id="42" value="" style="curved=1;endArrow=classic;html=1;entryX=0;entryY=0.5;entryDx=0;entryDy=0;" edge="1" parent="1" source="11" target="21">
                    <mxGeometry width="50" height="50" relative="1" as="geometry">
                        <mxPoint x="719.5714285714287" y="370.0028571428571" as="sourcePoint"/>
                        <mxPoint x="731" y="512.86" as="targetPoint"/>
                        <Array as="points">
                            <mxPoint x="690" y="412.86"/>
                            <mxPoint x="700" y="630"/>
                        </Array>
                    </mxGeometry>
                </mxCell>
                <mxCell id="45" value="state" style="rounded=1;whiteSpace=wrap;html=1;shadow=1;" vertex="1" parent="1">
                    <mxGeometry x="320.5" y="920" width="120" height="60" as="geometry"/>
                </mxCell>
                <mxCell id="46" value="action" style="shape=hexagon;perimeter=hexagonPerimeter2;whiteSpace=wrap;html=1;fixedSize=1;" vertex="1" parent="1">
                    <mxGeometry x="492.5" y="910" width="120" height="80" as="geometry"/>
                </mxCell>
                <mxCell id="47" value="&lt;p&gt;user&amp;nbsp;&lt;span&gt;action&lt;/span&gt;&lt;/p&gt;" style="shape=hexagon;perimeter=hexagonPerimeter2;whiteSpace=wrap;html=1;fixedSize=1;strokeColor=#FF33FF;" vertex="1" parent="1">
                    <mxGeometry x="669.5" y="910" width="120" height="80" as="geometry"/>
                </mxCell>
                <mxCell id="48" value="state update" style="shape=step;perimeter=stepPerimeter;whiteSpace=wrap;html=1;fixedSize=1;" vertex="1" parent="1">
                    <mxGeometry x="849.5" y="910" width="120" height="80" as="geometry"/>
                </mxCell>
                <UserObject label="Legend" placeholders="1" name="Variable" id="49">
                    <mxCell style="text;html=1;strokeColor=none;fillColor=none;align=center;verticalAlign=middle;whiteSpace=wrap;overflow=hidden;shadow=1;" vertex="1" parent="1">
                        <mxGeometry x="570" y="830" width="150" height="40" as="geometry"/>
                    </mxCell>
                </UserObject>
            </root>
        </mxGraphModel>
    </diagram>
</mxfile>